<svg width="168" height="84" viewBox="0 0 168 84" fill="none" xmlns="http://www.w3.org/2000/svg">
<g clip-path="url(#clip0_16_173)">
<g filter="url(#filter0_d_16_173)">
<path d="M21.1117 22.3035C21.1117 23.1377 21.3947 23.6938 21.772 23.7865C24.6957 24.7134 31.1092 25.2695 43.3703 25.2695C51.1042 25.2695 58.9324 24.8061 68.2696 23.7865C71.1934 23.4157 74.0229 24.25 74.7774 26.8453C75.7206 30.0894 73.1741 32.1286 70.6275 32.7774C64.8743 34.2604 56.4802 34.9093 49.0292 35.0946V37.1338C58.9324 37.0411 68.081 36.6704 73.8343 36.0215C77.324 35.9289 80.908 36.485 81.0966 40.4706C81.2852 44.4563 78.9273 45.9393 75.6263 46.4955C64.4027 47.6077 19.6027 47.7931 6.58704 46.4955C3.00304 45.9393 0.550834 43.7148 1.11673 40.1926C1.68262 36.7631 5.07799 35.9289 8.37904 36.0215C14.2266 36.5777 23.281 36.8558 33.1842 37.0411V35.002C26.2991 34.7239 19.1311 34.1678 15.3585 32.6847C12.6233 31.6651 8.94494 29.9967 8.0961 26.1964C7.62452 23.7865 7.71883 19.5228 8.0961 17.2055C8.56768 14.6102 11.0199 12.6637 12.8119 12.6637H57.4233V11.2734C57.4233 10.9026 57.4233 10.3465 56.3859 10.3465H14.2266C11.3028 10.3465 9.03925 8.30733 9.03925 5.52665C9.03925 2.56058 11.2085 0.521399 14.2266 0.521399H64.9686C67.5151 0.521399 71.3821 2.09713 72.2309 6.63892C72.6082 9.41961 72.6082 14.5175 72.0423 17.7617C71.4764 20.2643 68.8355 22.3035 66.0061 22.3035H21.1117ZM23.1867 70.8729V72.1705C23.1867 72.4486 23.4696 72.7266 24.1299 72.8193C28.657 73.4682 37.3341 73.8389 43.5589 73.8389C51.2928 73.8389 62.0448 73.5609 68.9299 72.1705C71.665 71.6144 74.3059 72.634 75.0604 75.322C75.8149 78.1026 74.0229 80.5126 71.3821 81.2541C65.0629 83.0152 51.6701 83.5713 42.8987 83.5713C34.316 83.5713 21.2061 83.386 15.5471 81.5322C12.8119 80.6053 9.13357 78.3807 8.28473 75.1366C7.34157 71.429 8.0961 67.6287 8.37904 66.2384C9.13357 62.7162 12.7176 61.3258 14.6982 61.3258H58.3665V60.2135C58.3665 59.7501 57.9892 59.2867 57.5176 59.2867H14.038C11.3971 59.2867 9.22789 57.2475 9.22789 54.4668C9.22789 52.0569 11.1142 49.6469 14.038 49.6469H65.4402C69.873 49.6469 72.8911 52.1495 73.3627 55.0229C74.1172 59.472 73.8343 63.365 73.1741 66.1457C72.4195 69.2971 69.0242 70.8729 66.1947 70.8729H23.1867ZM106.693 73.1901C100.185 73.1901 94.5263 72.5413 89.2446 70.224C86.4151 68.9264 84.6231 64.848 85.6606 61.4185C86.8867 57.6182 89.6219 56.4133 92.0741 56.4133C91.6025 45.1051 91.6025 32.592 92.0741 20.6351C88.8673 20.5424 86.981 16.6494 86.981 13.498C86.981 10.3465 88.5844 6.08278 92.2627 6.08278H121.218C123.953 6.08278 126.405 9.69768 126.405 13.4053C126.405 16.5567 124.613 20.6351 121.218 20.6351H105.373C104.712 32.6847 104.712 46.6809 105.373 58.7305C106.599 58.8232 107.73 58.7305 108.957 58.6378C109.522 47.7004 109.334 38.8022 108.862 30.5529C108.674 27.6795 109.711 24.528 114.333 23.6938C118.105 23.045 121.972 24.8061 122.161 29.0698C122.727 37.3192 122.727 46.1247 122.349 56.506C124.802 57.0621 126.782 58.9159 127.631 61.4185C128.763 64.7553 127.348 68.741 123.576 70.4094C118.105 72.8193 111.409 73.1901 106.693 73.1901ZM130.272 44.7344H129.517C126.405 44.7344 124.236 40.5633 124.236 37.4119C124.236 34.3531 126.594 30.0894 129.517 30.0894H130.272C130.178 21.6546 129.8 13.9614 129.329 8.77078C128.857 4.87782 132.064 1.17023 136.025 0.79947C140.175 0.428711 144.042 3.2094 144.608 7.10237C146.306 19.8009 145.645 62.7162 144.608 73.0047C144.042 76.7123 140.081 79.9564 136.402 79.4003C132.158 78.7515 129.234 75.322 129.329 71.6144C129.8 65.4969 130.178 55.3937 130.272 44.7344ZM162.811 6.63892C164.509 19.3374 163.849 63.1796 162.811 73.4682C162.245 77.1758 158.473 80.2345 154.511 79.8638C150.456 79.493 147.438 75.7854 147.532 72.0778C148.758 57.989 149.041 22.5815 147.532 8.30733C147.06 4.41437 150.55 0.614087 154.228 0.336021C158.378 0.0579511 162.245 2.74596 162.811 6.63892Z" fill="white"/>
<path d="M21.1117 22.3035V21.5793H20.3749V22.3035H21.1117ZM21.7719 23.7865L21.9982 23.0973L21.9746 23.0899L21.9506 23.0839L21.7719 23.7865ZM68.2696 23.7865L68.351 24.5063L68.3638 24.5047L68.2696 23.7865ZM70.6275 32.7774L70.4426 32.0764L70.4405 32.077L70.6275 32.7774ZM49.0292 35.0946L49.0105 34.3708L48.2924 34.3886V35.0946H49.0292ZM49.0292 37.1338H48.2924V37.8649L49.0361 37.8579L49.0292 37.1338ZM73.8343 36.0215L73.8142 35.2977L73.7821 35.2985L73.7503 35.3022L73.8343 36.0215ZM75.6263 46.4955L75.7001 47.216L75.7256 47.2134L75.7506 47.2092L75.6263 46.4955ZM6.58702 46.4955L6.47211 47.2108L6.49231 47.2138L6.51265 47.2158L6.58702 46.4955ZM1.11671 40.1926L0.389362 40.0767L0.388884 40.0796L1.11671 40.1926ZM8.37902 36.0215L8.45 35.3007L8.42509 35.2984L8.40007 35.2977L8.37902 36.0215ZM33.1842 37.0411L33.17 37.7651L33.921 37.7792V37.0411H33.1842ZM33.1842 35.0019H33.921V34.3069L33.2144 34.2784L33.1842 35.0019ZM15.3585 32.6847L15.6321 32.0123L15.6198 32.0076L15.3585 32.6847ZM8.09608 26.1964L7.37225 26.3333L7.37637 26.3517L8.09608 26.1964ZM8.09608 17.2055L7.3706 17.0782L7.36849 17.0911L8.09608 17.2055ZM57.4233 12.6637V13.3879H58.1602V12.6637H57.4233ZM72.2309 6.6389L72.9613 6.5432L72.9587 6.52557L72.9555 6.50808L72.2309 6.6389ZM72.0423 17.7617L72.7614 17.9188L72.7654 17.9014L72.7685 17.884L72.0423 17.7617ZM23.1867 70.8728V70.1487H22.4498V70.8728H23.1867ZM24.1298 72.8193L24.2361 72.1027L24.234 72.1024L24.1298 72.8193ZM75.0604 75.3219L75.7723 75.1354L75.7707 75.1293L75.0604 75.3219ZM15.5471 81.5322L15.3067 82.2167L15.314 82.2191L15.5471 81.5322ZM8.28471 75.1366L7.56985 75.3122L7.57108 75.3169L8.28471 75.1366ZM8.37902 66.2383L7.65795 66.0892L7.65649 66.0963L8.37902 66.2383ZM58.3665 61.3258V62.0499H59.1033V61.3258H58.3665ZM73.3627 55.0229L72.6351 55.1382L72.6359 55.142L73.3627 55.0229ZM20.3749 22.3035C20.3749 22.7934 20.4568 23.2493 20.6295 23.6227C20.7955 23.9817 21.0996 24.3677 21.5932 24.489L21.9506 23.0839C22.0668 23.1126 22.0409 23.1742 21.971 23.0234C21.908 22.887 21.8486 22.6477 21.8486 22.3035H20.3749ZM21.5456 24.4757C23.0946 24.9667 25.5012 25.3419 29.0151 25.5977C32.5421 25.8545 37.2307 25.9937 43.3703 25.9937V24.5454C37.2486 24.5454 32.6 24.4065 29.124 24.1535C25.6349 23.8995 23.373 23.5332 21.9982 23.0973L21.5456 24.4757ZM43.3703 25.9937C51.1361 25.9937 58.9919 25.5283 68.351 24.5063L68.1881 23.0668C58.8727 24.084 51.072 24.5454 43.3703 24.5454V25.9937ZM68.3638 24.5047C69.7374 24.3305 71.0357 24.4478 72.0492 24.8702C73.0413 25.2839 73.7612 25.9858 74.0689 27.0442L75.4858 26.6463C75.039 25.1093 73.9669 24.0966 72.6247 23.5369C71.3038 22.9862 69.7256 22.8718 68.1753 23.0683L68.3638 24.5047ZM74.0689 27.0442C74.4712 28.4279 74.1317 29.5036 73.4429 30.3236C72.7291 31.173 71.6078 31.7795 70.4426 32.0764L70.8123 33.4784C72.1936 33.1264 73.6188 32.389 74.5792 31.2455C75.5645 30.0727 76.0267 28.5067 75.4858 26.6463L74.0689 27.0442ZM70.4405 32.077C64.7743 33.5376 56.4517 34.1855 49.0105 34.3708L49.0478 35.8185C56.5084 35.6329 64.974 34.9833 70.8144 33.4778L70.4405 32.077ZM48.2924 35.0946V37.1338H49.766V35.0946H48.2924ZM49.0361 37.8579C58.945 37.7651 68.1252 37.3942 73.9183 36.7409L73.7503 35.3022C68.0368 35.9465 58.9195 36.3171 49.0221 36.4097L49.0361 37.8579ZM73.8542 36.7454C75.5813 36.6995 77.2005 36.8231 78.39 37.3722C78.9699 37.6397 79.4313 38.0012 79.761 38.4843C80.0906 38.9673 80.3185 39.616 80.3605 40.5042L81.8325 40.437C81.7802 39.3324 81.4893 38.417 80.9849 37.6776C80.4804 36.9384 79.7924 36.4194 79.0165 36.0612C77.4945 35.3589 75.5767 35.2509 73.8142 35.2977L73.8542 36.7454ZM80.3605 40.5042C80.4474 42.3421 79.9493 43.4894 79.1553 44.2509C78.3331 45.0395 77.0921 45.5138 75.5017 45.7817L75.7506 47.2092C77.4613 46.921 79.0498 46.3757 80.1847 45.2873C81.3477 44.1718 81.9342 42.5848 81.8325 40.437L80.3605 40.5042ZM75.5523 45.7749C69.9829 46.3269 56.0137 46.6519 41.7774 46.675C27.5414 46.6982 13.1253 46.4194 6.6614 45.7751L6.51265 47.2158C13.0643 47.8691 27.556 48.1465 41.7799 48.1233C56.0033 48.1001 70.0459 47.7763 75.7001 47.216L75.5523 45.7749ZM6.70194 45.7802C5.02417 45.5199 3.68696 44.8799 2.8398 43.9681C2.01097 43.0759 1.59402 41.8647 1.84453 40.3055L0.388884 40.0796C0.0735001 42.0426 0.599704 43.7048 1.75151 44.9445C2.88498 46.1645 4.56588 46.9149 6.47211 47.2108L6.70194 45.7802ZM1.84405 40.3084C2.08386 38.8551 2.89913 37.9754 4.03989 37.4395C5.2206 36.8851 6.76001 36.7005 8.35798 36.7454L8.40007 35.2977C6.69699 35.2499 4.88819 35.436 3.40447 36.1329C1.88081 36.8483 0.715441 38.1005 0.389362 40.0767L1.84405 40.3084ZM8.30805 36.7423C14.1885 37.3015 23.2708 37.5799 33.17 37.7651L33.1982 36.3171C23.291 36.1316 14.2647 35.8538 8.45 35.3007L8.30805 36.7423ZM33.921 37.0411V35.0019H32.4473V37.0411H33.921ZM33.2144 34.2784C29.7788 34.1396 26.2867 33.9319 23.1896 33.576C20.0776 33.2181 17.4235 32.7164 15.6321 32.0123L15.0848 33.357C17.066 34.1359 19.8821 34.6539 23.0185 35.0144C26.1699 35.3768 29.7043 35.5862 33.1538 35.7255L33.2144 34.2784ZM15.6198 32.0076C12.8576 30.978 9.57112 29.4229 8.81578 26.0412L7.37637 26.3517C8.31872 30.5705 12.3889 32.3522 15.097 33.3618L15.6198 32.0076ZM8.81966 26.0597C8.36828 23.753 8.45617 19.5772 8.82367 17.3199L7.36849 17.0911C6.98147 19.4683 6.88047 23.8201 7.37225 26.3333L8.81966 26.0597ZM8.82144 17.3328C9.02445 16.2155 9.66026 15.2162 10.458 14.4941C11.27 13.759 12.1611 13.3879 12.8119 13.3879V11.9396C11.6706 11.9396 10.4396 12.5417 9.45962 13.4288C8.46537 14.3287 7.63916 15.6003 7.3706 17.0782L8.82144 17.3328ZM12.8119 13.3879H57.4233V11.9396H12.8119V13.3879ZM58.1602 12.6637V11.2734H56.6865V12.6637H58.1602ZM58.1602 11.2734C58.1602 11.1285 58.1808 10.6609 57.9008 10.2606C57.5767 9.79737 57.0254 9.62235 56.3858 9.62235V11.0706C56.583 11.0706 56.6772 11.0977 56.7095 11.1106C56.7314 11.1193 56.7095 11.1141 56.6863 11.0811C56.6688 11.056 56.6731 11.046 56.6787 11.0815C56.6851 11.123 56.6865 11.1734 56.6865 11.2734H58.1602ZM56.3858 9.62235H14.2266V11.0706H56.3858V9.62235ZM14.2266 9.62235C11.6636 9.62235 9.77608 7.86351 9.77608 5.52663H8.30239C8.30239 8.75111 10.942 11.0706 14.2266 11.0706V9.62235ZM9.77608 5.52663C9.77608 4.22335 10.2491 3.16414 11.0153 2.43037C11.7834 1.69488 12.8894 1.24552 14.2266 1.24552V-0.202759C12.5458 -0.202759 11.058 0.367468 9.98692 1.39308C8.91405 2.42042 8.30239 3.86383 8.30239 5.52663H9.77608ZM14.2266 1.24552H64.9686V-0.202759H14.2266V1.24552ZM64.9686 1.24552C67.2687 1.24552 70.7394 2.66742 71.5061 6.76972L72.9555 6.50808C72.0246 1.52678 67.7614 -0.202759 64.9686 -0.202759V1.24552ZM71.5004 6.7346C71.8688 9.44993 71.8681 14.474 71.3159 17.6393L72.7685 17.884C73.3481 14.5611 73.3474 9.38924 72.9613 6.5432L71.5004 6.7346ZM71.323 17.6045C70.8369 19.7535 68.5141 21.5793 66.0061 21.5793V23.0276C69.1569 23.0276 72.1156 20.7751 72.7614 17.9188L71.323 17.6045ZM66.0061 21.5793H21.1117V23.0276H66.0061V21.5793ZM22.4498 70.8728V72.1705H23.9235V70.8728H22.4498ZM22.4498 72.1705C22.4498 72.5759 22.6631 72.913 22.9614 73.1384C23.2477 73.3549 23.6179 73.479 24.0255 73.5362L24.234 72.1024C23.9814 72.0669 23.88 72.0057 23.8599 71.9905C23.8526 71.985 23.8694 71.9958 23.8886 72.0303C23.9086 72.0668 23.9235 72.1157 23.9235 72.1705H22.4498ZM24.0234 73.5359C28.6041 74.1924 37.3234 74.563 43.5589 74.563V73.1148C37.3445 73.1148 28.7098 72.7439 24.2361 72.1027L24.0234 73.5359ZM43.5589 74.563C51.286 74.563 62.1095 74.287 69.0781 72.8799L68.7814 71.4611C61.9799 72.8347 51.2994 73.1148 43.5589 73.1148V74.563ZM69.0781 72.8799C70.3184 72.6277 71.493 72.7423 72.4169 73.1815C73.325 73.6134 74.03 74.3745 74.3501 75.5146L75.7707 75.1293C75.3361 73.5814 74.3434 72.4887 73.0587 71.8778C71.7897 71.2743 70.2762 71.1571 68.7814 71.4611L69.0781 72.8799ZM74.3483 75.5085C74.9799 77.8359 73.5109 79.9031 71.1796 80.5577L71.5831 81.9507C74.5334 81.1223 76.6497 78.3694 75.7723 75.1354L74.3483 75.5085ZM71.1796 80.5577C68.0996 81.4161 63.2395 81.9918 58.0085 82.3507C52.7945 82.7084 47.2708 82.8472 42.8987 82.8472V84.2955C47.2978 84.2955 52.8562 84.1561 58.1112 83.7955C63.3493 83.4361 68.3439 82.8534 71.5831 81.9507L71.1796 80.5577ZM42.8987 82.8472C38.6104 82.8472 33.2039 82.8008 28.1676 82.5239C23.1046 82.2456 18.5045 81.7377 15.7801 80.8452L15.314 82.2191C18.2485 83.1804 23.0328 83.6921 28.0852 83.9699C33.1643 84.2491 38.6041 84.2955 42.8987 84.2955V82.8472ZM15.7872 80.8475C14.4863 80.4067 12.9607 79.6558 11.6694 78.6384C10.3738 77.6176 9.36911 76.3732 8.99834 74.9563L7.57108 75.3169C8.04916 77.144 9.30799 78.634 10.7476 79.7683C12.1914 80.9059 13.8725 81.7307 15.3067 82.2167L15.7872 80.8475ZM8.99955 74.9609C8.10032 71.4261 8.81888 67.7695 9.10156 66.3804L7.65649 66.0963C7.37328 67.4879 6.58277 71.4319 7.56985 75.3122L8.99955 74.9609ZM9.10007 66.3875C9.4291 64.8515 10.3714 63.7743 11.4793 63.0691C12.6024 62.3542 13.8553 62.0499 14.6982 62.0499V60.6017C13.5605 60.6017 12.031 60.9926 10.6783 61.8534C9.31042 62.724 8.08343 64.103 7.65795 66.0892L9.10007 66.3875ZM14.6982 62.0499H58.3665V60.6017H14.6982V62.0499ZM59.1033 61.3258V60.2135H57.6296V61.3258H59.1033ZM59.1033 60.2135C59.1033 59.7956 58.9366 59.398 58.6757 59.102C58.4127 58.8039 58.0094 58.5625 57.5176 58.5625V60.0108C57.4973 60.0108 57.5184 60.0011 57.562 60.0506C57.6075 60.1022 57.6296 60.168 57.6296 60.2135H59.1033ZM57.5176 58.5625H14.038V60.0108H57.5176V58.5625ZM14.038 58.5625C11.8041 58.5625 9.96471 56.8476 9.96471 54.4668H8.49102C8.49102 57.6473 10.9902 60.0108 14.038 60.0108V58.5625ZM9.96471 54.4668C9.96471 52.3912 11.5848 50.371 14.038 50.371V48.9228C10.6436 48.9228 8.49102 51.7224 8.49102 54.4668H9.96471ZM14.038 50.371H65.4402V48.9228H14.038V50.371ZM65.4402 50.371C69.6095 50.371 72.2356 52.7032 72.6351 55.1382L74.0901 54.9076C73.5466 51.5958 70.1363 48.9228 65.4402 48.9228V50.371ZM72.6359 55.142C73.3745 59.4981 73.0943 63.2946 72.4564 65.9811L73.8913 66.3115C74.5738 63.4367 74.8598 59.4459 74.0895 54.9039L72.6359 55.142ZM72.4564 65.9811C71.811 68.6767 68.838 70.1487 66.1947 70.1487V71.597C69.2101 71.597 73.0276 69.9189 73.8913 66.3115L72.4564 65.9811ZM66.1947 70.1487H23.1867V71.597H66.1947V70.1487ZM89.2446 70.224L88.9329 70.8804L88.9441 70.8853L89.2446 70.224ZM85.6606 61.4185L84.9581 61.1997L84.9542 61.2121L85.6606 61.4185ZM92.0741 56.4132V57.1374H92.8417L92.8102 56.3836L92.0741 56.4132ZM92.0741 20.635L92.8103 20.6631L92.839 19.9328L92.0956 19.9112L92.0741 20.635ZM105.373 20.635V19.9109H104.674L104.637 20.5961L105.373 20.635ZM105.373 58.7305L104.637 58.7694L104.672 59.4038L105.316 59.4525L105.373 58.7305ZM108.957 58.6378L109.013 59.3598L109.66 59.311L109.692 58.6746L108.957 58.6378ZM108.862 30.5528L109.598 30.5123L109.597 30.5062L108.862 30.5528ZM114.333 23.6938L114.206 22.9805L114.199 22.9815L114.333 23.6938ZM122.161 29.0698L121.424 29.1012L121.426 29.1185L122.161 29.0698ZM122.349 56.5059L121.613 56.4802L121.591 57.0771L122.184 57.2115L122.349 56.5059ZM130.272 44.7344L131.009 44.7406L131.015 44.0102H130.272V44.7344ZM130.272 30.0894V30.8135H131.017L131.009 30.0814L130.272 30.0894ZM129.329 8.77076L130.063 8.70636L130.062 8.69574L130.06 8.68516L129.329 8.77076ZM136.025 0.79945L135.958 0.078279L135.955 0.0785736L136.025 0.79945ZM144.608 7.10235L145.338 7.00801L145.337 6.99994L144.608 7.10235ZM144.608 73.0047L145.337 73.1122L145.339 73.0942L145.341 73.0761L144.608 73.0047ZM129.329 71.6144L128.594 71.5596L128.593 71.578L128.592 71.5963L129.329 71.6144ZM162.811 6.6389L163.542 6.54456L163.541 6.53649L162.811 6.6389ZM162.811 73.4681L163.539 73.5756L163.542 73.5576L163.544 73.5396L162.811 73.4681ZM154.511 79.8637L154.581 79.1429L154.579 79.1426L154.511 79.8637ZM147.532 72.0778L146.798 72.0161L146.796 72.0378L146.795 72.0597L147.532 72.0778ZM147.532 8.30731L148.264 8.23247L148.263 8.22171L147.532 8.30731ZM154.228 0.336001L154.178 -0.386486L154.171 -0.386003L154.228 0.336001ZM106.693 72.4659C100.23 72.4659 94.6901 71.8202 89.5449 69.5627L88.9441 70.8853C94.3622 73.2623 100.14 73.9142 106.693 73.9142V72.4659ZM89.5561 69.5678C88.3486 69.014 87.3043 67.8323 86.6842 66.346C86.0664 64.8655 85.9027 63.159 86.3668 61.6249L84.9542 61.2121C84.3808 63.1075 84.5944 65.1549 85.3206 66.8954C86.0445 68.63 87.311 70.1365 88.9329 70.8804L89.5561 69.5678ZM86.3629 61.6373C86.933 59.8704 87.8335 58.7605 88.8262 58.0866C89.8251 57.4086 90.9688 57.1374 92.0741 57.1374V55.6891C90.727 55.6891 89.277 56.0203 87.9887 56.8949C86.6942 57.7736 85.6142 59.1663 84.9581 61.1997L86.3629 61.6373ZM92.8102 56.3836C92.3395 45.0957 92.3395 32.6019 92.8103 20.6631L91.3377 20.6069C90.8653 32.5822 90.8653 45.1145 91.3378 56.4429L92.8102 56.3836ZM92.0956 19.9112C90.8251 19.8745 89.7458 19.0877 88.9506 17.8312C88.1558 16.5749 87.7178 14.9481 87.7178 13.4979H86.2442C86.2442 15.1992 86.7492 17.0946 87.6993 18.5959C88.6489 20.0969 90.1161 21.3028 92.0524 21.3589L92.0956 19.9112ZM87.7178 13.4979C87.7178 12.0237 88.0964 10.3006 88.88 8.97157C89.6557 7.65578 90.7679 6.8069 92.2627 6.8069V5.35862C90.079 5.35862 88.5505 6.64159 87.6048 8.24553C86.6671 9.83622 86.2442 11.8207 86.2442 13.4979H87.7178ZM92.2627 6.8069H121.218V5.35862H92.2627V6.8069ZM121.218 6.8069C122.245 6.8069 123.346 7.49819 124.229 8.76348C125.101 10.011 125.668 11.6989 125.668 13.4052H127.142C127.142 11.404 126.483 9.43069 125.444 7.94384C124.418 6.47478 122.925 5.35862 121.218 5.35862V6.8069ZM125.668 13.4052C125.668 14.8642 125.249 16.5389 124.454 17.8264C123.662 19.1096 122.57 19.9109 121.218 19.9109V21.3592C123.261 21.3592 124.762 20.1213 125.715 18.5775C126.665 17.038 127.142 15.0977 127.142 13.4052H125.668ZM121.218 19.9109H105.373V21.3592H121.218V19.9109ZM104.637 20.5961C103.975 32.6717 103.975 46.6939 104.637 58.7694L106.108 58.6915C105.45 46.6678 105.45 32.6977 106.108 20.674L104.637 20.5961ZM105.316 59.4525C106.609 59.5502 107.799 59.4516 109.013 59.3598L108.9 57.9158C107.662 58.0094 106.589 58.0961 105.429 58.0085L105.316 59.4525ZM109.692 58.6746C110.26 47.7069 110.071 38.7825 109.598 30.5123L108.126 30.5934C108.597 38.8219 108.785 47.6939 108.221 58.601L109.692 58.6746ZM109.597 30.5062C109.509 29.16 109.714 27.8252 110.414 26.7485C111.1 25.6944 112.32 24.7933 114.466 24.4061L114.199 22.9815C111.723 23.4285 110.114 24.5202 109.173 25.9688C108.246 27.3947 108.027 29.0723 108.127 30.5995L109.597 30.5062ZM114.459 24.4071C116.203 24.1073 117.922 24.3738 119.202 25.1548C120.456 25.9201 121.341 27.2072 121.424 29.1012L122.897 29.0384C122.792 26.6686 121.649 24.9434 119.979 23.9244C118.335 22.9211 116.235 22.6315 114.206 22.9805L114.459 24.4071ZM121.426 29.1185C121.989 37.3338 121.99 46.1122 121.613 56.4802L123.086 56.5317C123.464 46.1371 123.464 37.3046 122.896 29.0211L121.426 29.1185ZM122.184 57.2115C124.363 57.7058 126.157 59.3619 126.932 61.6475L128.33 61.1895C127.408 58.4698 125.24 56.4183 122.515 55.8003L122.184 57.2115ZM126.932 61.6475C127.953 64.6571 126.677 68.2439 123.273 69.749L123.877 71.0702C128.019 69.2385 129.573 64.8535 128.33 61.1895L126.932 61.6475ZM123.273 69.749C117.955 72.0921 111.394 72.4659 106.693 72.4659V73.9142C111.423 73.9142 118.255 73.5469 123.877 71.0702L123.273 69.749ZM130.272 44.0102H129.517V45.4585H130.272V44.0102ZM129.517 44.0102C128.322 44.0102 127.198 43.204 126.331 41.8658C125.472 40.5412 124.973 38.8448 124.973 37.4119H123.499C123.499 39.1304 124.084 41.0953 125.088 42.6441C126.083 44.1792 127.6 45.4585 129.517 45.4585V44.0102ZM124.973 37.4119C124.973 36.0402 125.51 34.3444 126.399 32.9974C127.303 31.6254 128.43 30.8135 129.517 30.8135V29.3652C127.681 29.3652 126.167 30.6852 125.162 32.2098C124.14 33.7593 123.499 35.7248 123.499 37.4119H124.973ZM129.517 30.8135H130.272V29.3652H129.517V30.8135ZM131.009 30.0814C130.914 21.6333 130.536 13.9205 130.063 8.70636L128.595 8.83517C129.064 14.0022 129.441 21.6759 129.535 30.0974L131.009 30.0814ZM130.06 8.68516C129.64 5.21781 132.523 1.85465 136.095 1.52033L135.955 0.0785736C131.605 0.485762 128.074 4.53777 128.597 8.85637L130.06 8.68516ZM136.092 1.52061C139.893 1.18102 143.374 3.73298 143.878 7.20476L145.337 6.99994C144.71 2.68579 140.457 -0.32365 135.958 0.078279L136.092 1.52061ZM143.877 7.19668C144.718 13.4878 144.979 27.3398 144.897 40.9529C144.814 54.5576 144.39 67.827 143.875 72.9333L145.341 73.0761C145.864 67.8939 146.288 54.5613 146.37 40.9616C146.453 27.3702 146.195 13.4154 145.338 7.00801L143.877 7.19668ZM143.879 72.8972C143.628 74.5435 142.611 76.1275 141.21 77.2376C139.808 78.3487 138.1 78.9244 136.514 78.6845L136.289 80.1159C138.382 80.4322 140.495 79.664 142.135 78.3652C143.775 77.0654 145.022 75.1735 145.337 73.1122L143.879 72.8972ZM136.514 78.6845C132.605 78.087 129.981 74.9463 130.065 71.6325L128.592 71.5963C128.488 75.6976 131.71 79.4158 136.289 80.1159L136.514 78.6845ZM130.063 71.6691C130.537 65.5293 130.914 55.4086 131.009 44.7406L129.535 44.7281C129.441 55.3787 129.064 65.4644 128.594 71.5596L130.063 71.6691ZM162.08 6.73323C162.922 13.0242 163.183 27.1075 163.1 40.953C163.018 54.7899 162.593 68.2906 162.077 73.3967L163.544 73.5396C164.067 68.3572 164.491 54.7925 164.574 40.9614C164.656 27.1391 164.4 12.9521 163.542 6.54456L162.08 6.73323ZM162.082 73.3607C161.572 76.7001 158.14 79.476 154.581 79.1429L154.441 80.5845C158.804 80.993 162.917 77.6513 163.539 73.5756L162.082 73.3607ZM154.579 79.1426C150.935 78.8095 148.183 75.4484 148.269 72.0959L146.795 72.0597C146.692 76.1224 149.975 80.1764 154.442 80.5848L154.579 79.1426ZM148.266 72.1395C149.495 58.0175 149.779 22.5628 148.264 8.23247L146.799 8.38215C148.301 22.6002 148.021 57.9604 146.798 72.0161L148.266 72.1395ZM148.263 8.22171C148.057 6.514 148.717 4.78547 149.885 3.43518C151.056 2.0818 152.677 1.17955 154.284 1.05801L154.171 -0.386003C152.1 -0.229482 150.137 0.907447 148.763 2.49696C147.385 4.08957 146.535 6.20765 146.8 8.39291L148.263 8.22171ZM154.279 1.05846C158.107 0.8019 161.579 3.28307 162.082 6.74131L163.541 6.53649C162.911 2.20878 158.65 -0.686064 154.178 -0.386486L154.279 1.05846Z" fill="#181818"/>
</g>
</g>
<defs>
<filter id="filter0_d_16_173" x="0.298767" y="-0.407715" width="166.29" height="84.7031" filterUnits="userSpaceOnUse" color-interpolation-filters="sRGB">
<feFlood flood-opacity="0" result="BackgroundImageFix"/>
<feColorMatrix in="SourceAlpha" type="matrix" values="0 0 0 0 0 0 0 0 0 0 0 0 0 0 0 0 0 0 127 0" result="hardAlpha"/>
<feOffset dx="2"/>
<feComposite in2="hardAlpha" operator="out"/>
<feColorMatrix type="matrix" values="0 0 0 0 0 0 0 0 0 0 0 0 0 0 0 0 0 0 1 0"/>
<feBlend mode="normal" in2="BackgroundImageFix" result="effect1_dropShadow_16_173"/>
<feBlend mode="normal" in="SourceGraphic" in2="effect1_dropShadow_16_173" result="shape"/>
</filter>
<clipPath id="clip0_16_173">
<rect width="168" height="84" fill="white"/>
</clipPath>
</defs>
</svg>
