<svg width="18" height="18" viewBox="0 0 18 18" fill="none" xmlns="http://www.w3.org/2000/svg">
<path fill-rule="evenodd" clip-rule="evenodd" d="M16.4375 8.51282L13.7556 11.2468L12.355 9.81909L15.0369 7.08506C16.1619 5.93823 16.1619 4.07886 15.0369 2.93203C13.912 1.7852 12.088 1.7852 10.9631 2.93203L8.28115 5.66606L6.88061 4.2383L9.56253 1.50427C11.461 -0.431084 14.539 -0.431083 16.4375 1.50427C18.3359 3.43963 18.3359 6.57746 16.4375 8.51282ZM10.5444 11.6649L11.9449 13.0926L9.19504 15.896C7.29657 17.8313 4.21855 17.8313 2.32009 15.896C0.421623 13.9606 0.421623 10.8228 2.32009 8.88744L5.07 6.0841L6.47054 7.51185L3.72063 10.3152C2.59566 11.462 2.59566 13.3214 3.72063 14.4682C4.8456 15.6151 6.66953 15.6151 7.7945 14.4682L10.5444 11.6649ZM12.0623 5.8289C11.8123 5.57405 11.407 5.57405 11.157 5.8289L7.0831 9.98193C6.8331 10.2368 6.8331 10.65 7.0831 10.9048C7.33309 11.1597 7.73841 11.1597 7.9884 10.9048L12.0623 6.7518C12.3123 6.49695 12.3123 6.08375 12.0623 5.8289Z" fill="#181818"/>
</svg>
