<svg width="19" height="19" viewBox="0 0 19 19" fill="none" xmlns="http://www.w3.org/2000/svg">
<path fill-rule="evenodd" clip-rule="evenodd" d="M16.8235 9.58828C16.8235 13.6817 13.5052 17 9.41177 17C7.66478 17 6.05896 16.3956 4.79201 15.3845L15.208 4.96852C16.2191 6.23547 16.8235 7.84129 16.8235 9.58828ZM3.40999 13.9381L13.7616 3.58651C12.5399 2.69956 11.0369 2.17651 9.41177 2.17651C5.31836 2.17651 2 5.49487 2 9.58828C2 11.2134 2.52305 12.7164 3.40999 13.9381ZM18.8235 9.58828C18.8235 14.7863 14.6097 19 9.41177 19C4.21379 19 0 14.7863 0 9.58828C0 4.3903 4.21379 0.176514 9.41177 0.176514C14.6097 0.176514 18.8235 4.3903 18.8235 9.58828Z" fill="#EF3C3C"/>
</svg>
